<svg width="14" height="15" viewBox="0 0 14 15" fill="none" xmlns="http://www.w3.org/2000/svg">
<path d="M13 1.48836H12.0267V2.15503H13C13.0884 2.15503 13.1732 2.19015 13.2357 2.25266C13.2982 2.31517 13.3333 2.39996 13.3333 2.48836V9.48836H11.6667V0.488363C11.6667 0.399957 11.6315 0.315173 11.569 0.25266C11.5065 0.190148 11.4217 0.155029 11.3333 0.155029H2.66667C2.57826 0.155029 2.49348 0.190148 2.43096 0.25266C2.36845 0.315173 2.33333 0.399957 2.33333 0.488363V9.48836H0.666667V2.48836C0.666667 2.39996 0.701786 2.31517 0.764298 2.25266C0.82681 2.19015 0.911595 2.15503 1 2.15503H2.02667V1.48836H1C0.734784 1.48836 0.48043 1.59372 0.292893 1.78126C0.105357 1.96879 0 2.22315 0 2.48836V11.155C0 11.5971 0.175595 12.021 0.488155 12.3335C0.800716 12.6461 1.22464 12.8217 1.66667 12.8217H5.33333V14.155H4.66667V14.8217H9.33333V14.155H8.66667V12.8217H12.3333C12.7754 12.8217 13.1993 12.6461 13.5118 12.3335C13.8244 12.021 14 11.5971 14 11.155V2.48836C14 2.22315 13.8946 1.96879 13.7071 1.78126C13.5196 1.59372 13.2652 1.48836 13 1.48836ZM11 0.821696V2.15503H3V0.821696H11ZM3 2.8217H11V9.48836H3V2.8217ZM8 14.155H6V12.8217H8V14.155ZM12.3333 12.155H1.66667C1.40145 12.155 1.1471 12.0497 0.95956 11.8621C0.772024 11.6746 0.666667 11.4202 0.666667 11.155V10.155H13.3333V11.155C13.3333 11.4202 13.228 11.6746 13.0404 11.8621C12.8529 12.0497 12.5985 12.155 12.3333 12.155ZM6 10.8217H8V11.4884H6V10.8217ZM4.66667 1.8217H3.66667V1.15503H4.66667V1.8217ZM6.33333 1.8217H5.33333V1.15503H6.33333V1.8217ZM7.33333 4.1817V3.48836H6.66667V4.1817C6.0828 4.26597 5.55253 4.56827 5.18257 5.02775C4.8126 5.48723 4.63041 6.0698 4.67266 6.65819C4.7149 7.24659 4.97845 7.79715 5.41026 8.19907C5.84207 8.60099 6.41009 8.82443 7 8.82443C7.58991 8.82443 8.15793 8.60099 8.58974 8.19907C9.02155 7.79715 9.2851 7.24659 9.32734 6.65819C9.36959 6.0698 9.1874 5.48723 8.81743 5.02775C8.44747 4.56827 7.9172 4.26597 7.33333 4.1817ZM7 8.15503C6.67036 8.15503 6.34813 8.05728 6.07405 7.87415C5.79997 7.69101 5.58635 7.43071 5.4602 7.12617C5.33405 6.82163 5.30105 6.48652 5.36536 6.16321C5.42967 5.83991 5.5884 5.54294 5.82149 5.30985C6.05458 5.07677 6.35155 4.91803 6.67485 4.85372C6.99815 4.78941 7.33326 4.82242 7.63781 4.94856C7.94235 5.07471 8.20265 5.28833 8.38578 5.56241C8.56892 5.8365 8.66667 6.15873 8.66667 6.48836C8.66667 6.93039 8.49107 7.35431 8.17851 7.66688C7.86595 7.97944 7.44203 8.15503 7 8.15503ZM7.33333 6.15503H8V6.8217H7C6.91159 6.8217 6.82681 6.78658 6.7643 6.72407C6.70179 6.66155 6.66667 6.57677 6.66667 6.48836V5.48836H7.33333V6.15503Z" fill="#4C4452"/>
</svg>
