<svg width="10" height="14" viewBox="0 0 10 14" fill="none" xmlns="http://www.w3.org/2000/svg">
<path d="M8.88348 8.89704C8.28221 8.4252 7.56086 8.08225 6.77429 7.87666C7.77165 7.15195 8.44419 5.82296 8.44419 4.30176C8.44419 4.10196 8.42821 3.90172 8.40489 3.70193L8.93013 3.46556V4.90382C8.93013 5.01027 8.97109 5.11236 9.04399 5.18763C9.1169 5.2629 9.21578 5.30519 9.31888 5.30519C9.42199 5.30519 9.52087 5.2629 9.59377 5.18763C9.66668 5.11236 9.70764 5.01027 9.70764 4.90382V3.03609C9.79964 2.92237 9.85795 2.781 9.85795 2.62669C9.85795 2.3707 9.71109 2.1388 9.48389 2.03667L5.52553 0.256357C5.37648 0.189519 5.2157 0.155029 5.0532 0.155029C4.89069 0.155029 4.72992 0.189519 4.58086 0.256357L0.622508 2.03667C0.51108 2.08655 0.416206 2.16898 0.349563 2.27381C0.282919 2.37864 0.247412 2.5013 0.247412 2.62669C0.247412 2.75208 0.282919 2.87474 0.349563 2.97957C0.416206 3.0844 0.51108 3.16683 0.622508 3.21671L1.69978 3.70148C1.67689 3.8986 1.6622 4.09661 1.6622 4.3022C1.6622 5.82252 2.33388 7.15151 3.33038 7.87621C2.54294 8.08136 1.82116 8.42475 1.22119 8.89704C0.587952 9.39429 0.209999 10.2046 0.209999 11.064V12.2267C0.210342 12.5494 0.334631 12.8588 0.555609 13.087C0.776586 13.3152 1.07621 13.4437 1.38878 13.4442H8.71675C9.02905 13.444 9.32855 13.316 9.54954 13.0882C9.77053 12.8604 9.89496 12.5513 9.89553 12.2289V11.0649C9.89597 10.206 9.51758 9.39563 8.88348 8.89704ZM2.43971 4.3022C2.43971 4.21301 2.4531 4.12917 2.45828 4.04265L4.58086 4.99747C4.72989 5.06441 4.89068 5.09896 5.0532 5.09896C5.21572 5.09896 5.3765 5.06441 5.52553 4.99747L7.65546 4.03953C7.66064 4.12694 7.66626 4.2139 7.66626 4.3022C7.66626 6.1512 6.49396 7.6559 5.05298 7.6559C3.61201 7.6559 2.43971 6.1512 2.43971 4.3022ZM4.15885 8.52376C4.45436 8.48075 4.7524 8.459 5.05082 8.45865C5.35318 8.45865 5.65036 8.48184 5.93977 8.52331L5.05039 9.97093L4.15885 8.52376Z" fill="#4C4452"/>
</svg>
