<svg width="14" height="11" viewBox="0 0 14 11" fill="none" xmlns="http://www.w3.org/2000/svg">
<path d="M7.00116 3.19299C5.64285 3.19299 4.54169 4.29415 4.54169 5.65246C4.54169 7.01076 5.64285 8.11192 7.00116 8.11192C8.35946 8.11192 9.46062 7.01076 9.46062 5.65246C9.46062 4.29415 8.35946 3.19299 7.00116 3.19299Z" fill="#4C4452"/>
<path fill-rule="evenodd" clip-rule="evenodd" d="M4.45341 2.21886C4.67815 2.43737 4.68319 2.7967 4.46469 3.02144C3.05343 4.47297 3.05343 6.83269 4.46469 8.28423C4.68319 8.50898 4.67815 8.86829 4.45341 9.08677C4.22866 9.30532 3.86933 9.30025 3.65082 9.07549C1.81121 7.18345 1.81121 4.12222 3.65082 2.23015C3.86933 2.0054 4.22866 2.00035 4.45341 2.21886ZM9.54832 2.21886C9.773 2.00035 10.1324 2.0054 10.3509 2.23015C12.1905 4.12222 12.1905 7.18345 10.3509 9.07549C10.1324 9.30025 9.773 9.30532 9.54832 9.08677C9.32356 8.86829 9.31849 8.50898 9.53705 8.28423C10.9482 6.83269 10.9482 4.47297 9.53705 3.02144C9.31849 2.7967 9.32356 2.43737 9.54832 2.21886Z" fill="#4C4452"/>
<path fill-rule="evenodd" clip-rule="evenodd" d="M2.85326 0.713522C3.07472 0.935366 3.07441 1.29473 2.85257 1.51618C0.562657 3.80213 0.562657 7.50797 2.85257 9.79391C3.07441 10.0154 3.07472 10.3747 2.85326 10.5966C2.63181 10.8184 2.27245 10.8187 2.0506 10.5973C-0.683534 7.86789 -0.683534 3.44223 2.0506 0.712826C2.27245 0.491369 2.63181 0.491679 2.85326 0.713522ZM11.1467 0.713522C11.3682 0.491679 11.7276 0.491369 11.9494 0.712826C14.6835 3.44223 14.6835 7.86789 11.9494 10.5973C11.7276 10.8187 11.3682 10.8184 11.1467 10.5966C10.9253 10.3747 10.9256 10.0154 11.1474 9.79391C13.4374 7.50797 13.4374 3.80213 11.1474 1.51618C10.9256 1.29473 10.9253 0.935366 11.1467 0.713522Z" fill="#4C4452"/>
</svg>
