<svg width="21" height="20" viewBox="0 0 21 20" fill="none" xmlns="http://www.w3.org/2000/svg">
<path d="M17.4583 6.67498L12 2.30831C10.9333 1.45831 9.26666 1.44997 8.20833 2.29997L2.75 6.67498C1.96666 7.29998 1.49166 8.54997 1.65833 9.53331L2.70833 15.8166C2.95 17.225 4.25833 18.3333 5.68333 18.3333H14.5167C15.925 18.3333 17.2583 17.2 17.5 15.8083L18.55 9.52497C18.7 8.54997 18.225 7.29998 17.4583 6.67498ZM10.725 15C10.725 15.3416 10.4417 15.625 10.1 15.625C9.75833 15.625 9.47499 15.3416 9.47499 15V12.5C9.47499 12.1583 9.75833 11.875 10.1 11.875C10.4417 11.875 10.725 12.1583 10.725 12.5V15Z" fill="#7D23E0"/>
</svg>
