<svg width="25" height="24" viewBox="0 0 25 24" fill="none" xmlns="http://www.w3.org/2000/svg">
<path d="M8.8 19H8.3C4.3 19 2.3 18 2.3 13V8C2.3 4 4.3 2 8.3 2H16.3C20.3 2 22.3 4 22.3 8V13C22.3 17 20.3 19 16.3 19H15.8C15.49 19 15.19 19.15 15 19.4L13.5 21.4C12.84 22.28 11.76 22.28 11.1 21.4L9.6 19.4C9.44 19.18 9.07 19 8.8 19Z" stroke="#7C7C7C" stroke-width="1.5" stroke-miterlimit="10" stroke-linecap="round" stroke-linejoin="round"/>
<path d="M16.2965 11H16.3054" stroke="#7C7C7C" stroke-width="1.5" stroke-linecap="round" stroke-linejoin="round"/>
<path d="M12.2955 11H12.3045" stroke="#7C7C7C" stroke-width="1.5" stroke-linecap="round" stroke-linejoin="round"/>
<path d="M8.2945 11H8.30348" stroke="#7C7C7C" stroke-width="1.5" stroke-linecap="round" stroke-linejoin="round"/>
</svg>
