<svg width="25" height="24" viewBox="0 0 25 24" fill="none" xmlns="http://www.w3.org/2000/svg">
<path d="M10.75 2.53004L4.73 6.46004C2.8 7.72004 2.8 10.54 4.73 11.8L10.75 15.73C11.83 16.44 13.61 16.44 14.69 15.73L20.68 11.8C22.6 10.54 22.6 7.73004 20.68 6.47004L14.69 2.54004C13.61 1.82004 11.83 1.82004 10.75 2.53004Z" stroke="#7C7C7C" stroke-width="1.5" stroke-linecap="round" stroke-linejoin="round"/>
<path d="M6.33 13.08L6.32 17.77C6.32 19.04 7.3 20.4 8.5 20.8L11.69 21.86C12.24 22.04 13.15 22.04 13.71 21.86L16.9 20.8C18.1 20.4 19.08 19.04 19.08 17.77V13.13" stroke="#7C7C7C" stroke-width="1.5" stroke-linecap="round" stroke-linejoin="round"/>
<path d="M22.1 15V9" stroke="#7C7C7C" stroke-width="1.5" stroke-linecap="round" stroke-linejoin="round"/>
</svg>
