<svg width="25" height="24" viewBox="0 0 25 24" fill="none" xmlns="http://www.w3.org/2000/svg">
<path d="M12.52 2.91C9.21 2.91 6.52 5.6 6.52 8.91V11.8C6.52 12.41 6.26 13.34 5.95 13.86L4.8 15.77C4.09 16.95 4.58 18.26 5.88 18.7C10.19 20.14 14.84 20.14 19.15 18.7C20.36 18.3 20.89 16.87 20.23 15.77L19.08 13.86C18.78 13.34 18.52 12.41 18.52 11.8V8.91C18.52 5.61 15.82 2.91 12.52 2.91Z" stroke="#292D32" stroke-width="1.5" stroke-miterlimit="10" stroke-linecap="round"/>
<path d="M14.37 3.2C14.06 3.11 13.74 3.04 13.41 3C12.45 2.88 11.53 2.95 10.67 3.2C10.96 2.46 11.68 1.94 12.52 1.94C13.36 1.94 14.08 2.46 14.37 3.2Z" stroke="#292D32" stroke-width="1.5" stroke-miterlimit="10" stroke-linecap="round" stroke-linejoin="round"/>
<path d="M15.52 19.06C15.52 20.71 14.17 22.06 12.52 22.06C11.7 22.06 10.94 21.72 10.4 21.18C9.86 20.64 9.52 19.88 9.52 19.06" stroke="#292D32" stroke-width="1.5" stroke-miterlimit="10"/>
</svg>
